<?xml version="1.0" encoding="UTF-8" standalone="no"?>
<svg
   xmlns:dc="http://purl.org/dc/elements/1.1/"
   xmlns:cc="http://creativecommons.org/ns#"
   xmlns:rdf="http://www.w3.org/1999/02/22-rdf-syntax-ns#"
   xmlns:svg="http://www.w3.org/2000/svg"
   xmlns="http://www.w3.org/2000/svg"
   height="87.550003"
   width="87.550003"
   id="svg2"
   xml:space="preserve"
   enable-background="new -370 248.3 100 100"
   viewBox="-370 248.3 87.550004 87.550005"
   y="0px"
   x="0px"
   version="1.1"><metadata
     id="metadata26"><rdf:RDF><cc:Work
         rdf:about=""><dc:format>image/svg+xml</dc:format><dc:type
           rdf:resource="http://purl.org/dc/dcmitype/StillImage" /><dc:title></dc:title></cc:Work></rdf:RDF></metadata><defs
     id="defs24" /><g
     transform="translate(-6.1229065,-5.9943939)"
     id="g4"><path
       id="path6"
       d="m -315.9,295.4 26.24916,-26.49424 -1.5,-1.25492 L -317.4,293.9 c -1.9,-1.2 -4.5,-1 -6.2,0.7 -1.9,1.9 -1.9,5.1 0,7 1.9,1.9 5.1,1.9 7,0 1.7,-1.7 1.9,-4.3 0.7,-6.2 z" /><g
       id="g8"><path
         id="path10"
         d="m -320,318.1 c -10.9,0 -19.8,-8.9 -19.8,-19.8 0,-10.9 8.9,-19.8 19.8,-19.8 10.9,0 19.8,8.9 19.8,19.8 0,10.9 -8.9,19.8 -19.8,19.8 z m 0,-38.7 c -10.4,0 -18.8,8.4 -18.8,18.8 0,10.4 8.4,18.8 18.8,18.8 10.4,0 18.8,-8.4 18.8,-18.8 0,-10.4 -8.4,-18.8 -18.8,-18.8 z" /></g><g
       id="g12" /></g><g
     transform="translate(0,-43.774997)"
     style="font-style:normal;font-weight:normal;font-size:90px;line-height:125%;font-family:sans-serif;letter-spacing:0px;word-spacing:0px;fill:#000000;fill-opacity:1;stroke:none;stroke-width:1px;stroke-linecap:butt;stroke-linejoin:miter;stroke-opacity:1"
     id="text3354"><path
       d="m -326.225,292.075 c -24.225,0 -43.775,19.55 -43.775,43.775 0,24.0125 19.55,43.775 43.775,43.775 24.225,0 43.775,-19.7625 43.775,-43.775 0,-24.225 -19.55,-43.775 -43.775,-43.775 z m 0,70.975 c -15.0875,0 -27.4125,-12.1125 -27.4125,-27.2 0,-15.0875 12.325,-27.4125 27.4125,-27.4125 15.0875,0 27.4125,12.325 27.4125,27.4125 0,15.0875 -12.325,27.2 -27.4125,27.2 z"
       style="font-style:normal;font-variant:normal;font-weight:500;font-stretch:normal;font-size:212.5px;font-family:Neometric;-inkscape-font-specification:'Neometric Medium'"
       id="path3430" /></g></svg>