<?xml version="1.0" encoding="UTF-8" standalone="no"?>
<svg
   xmlns:dc="http://purl.org/dc/elements/1.1/"
   xmlns:cc="http://creativecommons.org/ns#"
   xmlns:rdf="http://www.w3.org/1999/02/22-rdf-syntax-ns#"
   xmlns:svg="http://www.w3.org/2000/svg"
   xmlns="http://www.w3.org/2000/svg"
   version="1.1"
   x="0px"
   y="0px"
   viewBox="-370 248.3 765.72382 131.325"
   enable-background="new -370 248.3 100 100"
   xml:space="preserve"
   id="svg2"
   width="765.72382"
   height="131.325"><metadata
     id="metadata26"><rdf:RDF><cc:Work
         rdf:about=""><dc:format>image/svg+xml</dc:format><dc:type
           rdf:resource="http://purl.org/dc/dcmitype/StillImage" /><dc:title></dc:title></cc:Work></rdf:RDF></metadata><defs
     id="defs24" /><g
     id="g4"
     transform="translate(-6.1229065,37.780603)"><path
       d="m -315.9,295.4 26.24916,-26.49424 -1.5,-1.25492 L -317.4,293.9 c -1.9,-1.2 -4.5,-1 -6.2,0.7 -1.9,1.9 -1.9,5.1 0,7 1.9,1.9 5.1,1.9 7,0 1.7,-1.7 1.9,-4.3 0.7,-6.2 z"
       id="path6" /><g
       id="g8"><path
         d="m -320,318.1 c -10.9,0 -19.8,-8.9 -19.8,-19.8 0,-10.9 8.9,-19.8 19.8,-19.8 10.9,0 19.8,8.9 19.8,19.8 0,10.9 -8.9,19.8 -19.8,19.8 z m 0,-38.7 c -10.4,0 -18.8,8.4 -18.8,18.8 0,10.4 8.4,18.8 18.8,18.8 10.4,0 18.8,-8.4 18.8,-18.8 0,-10.4 -8.4,-18.8 -18.8,-18.8 z"
         id="path10" /></g><g
       id="g12" /></g><g
     id="text3354"
     style="font-style:normal;font-weight:normal;font-size:90px;line-height:125%;font-family:sans-serif;letter-spacing:0px;word-spacing:0px;fill:#000000;fill-opacity:1;stroke:none;stroke-width:1px;stroke-linecap:butt;stroke-linejoin:miter;stroke-opacity:1"><path
       id="path3430"
       style="font-style:normal;font-variant:normal;font-weight:500;font-stretch:normal;font-size:212.5px;font-family:Neometric;-inkscape-font-specification:'Neometric Medium'"
       d="m -326.225,292.075 c -24.225,0 -43.775,19.55 -43.775,43.775 0,24.0125 19.55,43.775 43.775,43.775 24.225,0 43.775,-19.7625 43.775,-43.775 0,-24.225 -19.55,-43.775 -43.775,-43.775 z m 0,70.975 c -15.0875,0 -27.4125,-12.1125 -27.4125,-27.2 0,-15.0875 12.325,-27.4125 27.4125,-27.4125 15.0875,0 27.4125,12.325 27.4125,27.4125 0,15.0875 -12.325,27.2 -27.4125,27.2 z" /><path
       id="path3432"
       style="font-style:normal;font-variant:normal;font-weight:500;font-stretch:normal;font-size:212.5px;font-family:Neometric;-inkscape-font-specification:'Neometric Medium'"
       d="m -225.78555,292.075 c -10.2,0 -19.7625,3.6125 -27.2,9.775 l 0,-53.55 -16.575,0 0,87.55 c 0,24.225 19.7625,43.775 43.775,43.775 24.225,0 43.775,-19.55 43.775,-43.775 0,-24.0125 -19.55,-43.775 -43.775,-43.775 z m 0,71.1875 c -15.0875,0 -27.2,-12.325 -27.2,-27.4125 0,-15.0875 12.1125,-27.2 27.2,-27.2 15.0875,0 27.4125,12.1125 27.4125,27.2 0,15.0875 -12.325,27.4125 -27.4125,27.4125 z" /><path
       id="path3434"
       style="font-style:normal;font-variant:normal;font-weight:500;font-stretch:normal;font-size:212.5px;font-family:Neometric;-inkscape-font-specification:'Neometric Medium'"
       d="m -125.34609,292.075 c -24.225,0 -43.775,19.55 -43.775,43.775 0,24.0125 19.55,43.775 43.775,43.775 24.225,0 43.774996,-19.7625 43.774996,-43.775 0,-24.225 -19.549996,-43.775 -43.774996,-43.775 z m 0,70.975 c -15.0875,0 -27.4125,-12.1125 -27.4125,-27.2 0,-15.0875 12.325,-27.4125 27.4125,-27.4125 15.0875,0 27.412496,12.325 27.412496,27.4125 0,15.0875 -12.324996,27.2 -27.412496,27.2 z" /><path
       id="path3436"
       style="font-style:normal;font-variant:normal;font-weight:500;font-stretch:normal;font-size:212.5px;font-family:Neometric;-inkscape-font-specification:'Neometric Medium'"
       d="m 18.868359,292.075 -87.55,0 0,16.575 62.4750004,0 -62.4750004,54.6125 0,8.5 0,7.8625 87.55,0 0,-16.3625 -62.6875,0 62.6875,-54.6125 0,-8.5 0,-8.075 z" /><path
       id="path3438"
       style="font-style:normal;font-variant:normal;font-weight:500;font-stretch:normal;font-size:212.5px;font-family:Neometric;-inkscape-font-specification:'Neometric Medium'"
       d="m 31.757812,335.85 0,43.775 16.575001,0 0,-43.775 c 0,-15.0875 12.112499,-27.4125 27.2,-27.4125 l 0,-16.3625 c -24.0125,0 -43.775001,19.55 -43.775001,43.775 z" /><path
       id="path3440"
       style="font-style:normal;font-variant:normal;font-weight:500;font-stretch:normal;font-size:212.5px;font-family:Neometric;-inkscape-font-specification:'Neometric Medium'"
       d="m 121.60215,379.625 c 17.2125,0 32.3,-9.9875 39.3125,-24.4375 l -19.7625,0 c -5.1,4.8875 -11.9,8.075 -19.55,8.075 -12.325,0 -22.737502,-8.075 -26.137502,-19.125 l 69.062502,0 c 0.425,-2.55 0.85,-5.3125 0.85,-8.2875 0,-24.0125 -19.55,-43.775 -43.775,-43.775 -24.225002,0 -43.775002,19.7625 -43.775002,43.775 0,24.225 19.55,43.775 43.775002,43.775 z m 0,-70.975 c 12.1125,0 22.525,8.075 26.1375,19.125 l -52.275002,0 c 3.4,-11.05 13.812502,-19.125 26.137502,-19.125 z" /><path
       id="path3442"
       style="font-style:normal;font-variant:normal;font-weight:500;font-stretch:normal;font-size:212.5px;font-family:Neometric;-inkscape-font-specification:'Neometric Medium'"
       d="m 194.6291,335.85 c 0,-15.0875 12.325,-27.4125 27.4125,-27.4125 15.0875,0 27.4125,12.325 27.4125,27.4125 l 0,43.775 16.3625,0 0,-43.775 c 0,-24.225 -19.55,-43.775 -43.775,-43.775 -24.225,0 -43.775,19.55 -43.775,43.775 l 0,43.775 16.3625,0 0,-43.775 z" /><path
       id="path3444"
       style="font-style:normal;font-variant:normal;font-weight:500;font-stretch:normal;font-size:212.5px;font-family:Neometric;-inkscape-font-specification:'Neometric Medium'"
       d="m 278.70605,379.625 16.575,0 0,-87.55 -16.575,0 0,87.55 z m 16.575,-120.4875 -16.575,0 0,16.3625 16.575,0 0,-16.3625 z" /><path
       id="path3446"
       style="font-style:normal;font-variant:normal;font-weight:500;font-stretch:normal;font-size:212.5px;font-family:Neometric;-inkscape-font-specification:'Neometric Medium'"
       d="m 351.94883,379.625 c 17.2125,0 32.3,-9.9875 39.3125,-24.4375 l -19.7625,0 c -5.1,4.8875 -11.9,8.075 -19.55,8.075 -12.325,0 -22.7375,-8.075 -26.1375,-19.125 l 69.0625,0 c 0.425,-2.55 0.85,-5.3125 0.85,-8.2875 0,-24.0125 -19.55,-43.775 -43.775,-43.775 -24.225,0 -43.775,19.7625 -43.775,43.775 0,24.225 19.55,43.775 43.775,43.775 z m 0,-70.975 c 12.1125,0 22.525,8.075 26.1375,19.125 l -52.275,0 c 3.4,-11.05 13.8125,-19.125 26.1375,-19.125 z" /></g></svg>