<?xml version="1.0" encoding="UTF-8" standalone="no"?>
<svg
   xmlns:dc="http://purl.org/dc/elements/1.1/"
   xmlns:cc="http://creativecommons.org/ns#"
   xmlns:rdf="http://www.w3.org/1999/02/22-rdf-syntax-ns#"
   xmlns:svg="http://www.w3.org/2000/svg"
   xmlns="http://www.w3.org/2000/svg"
   version="1.1"
   x="0px"
   y="0px"
   viewBox="-370 248.3 765.72382 131.325"
   enable-background="new -370 248.3 100 100"
   xml:space="preserve"
   id="svg2"
   width="765.72382"
   height="131.325"><metadata
     id="metadata26"><rdf:RDF><cc:Work
         rdf:about=""><dc:format>image/svg+xml</dc:format><dc:type
           rdf:resource="http://purl.org/dc/dcmitype/StillImage" /><dc:title></dc:title></cc:Work></rdf:RDF></metadata><defs
     id="defs24" /><g
     id="g4"
     transform="translate(-6.1229065,37.780603)"><path
       d="m -315.9,295.4 26.24916,-26.49424 -1.5,-1.25492 L -317.4,293.9 c -1.9,-1.2 -4.5,-1 -6.2,0.7 -1.9,1.9 -1.9,5.1 0,7 1.9,1.9 5.1,1.9 7,0 1.7,-1.7 1.9,-4.3 0.7,-6.2 z"
       id="path6" /><g
       id="g8"><path
         d="m -320,318.1 c -10.9,0 -19.8,-8.9 -19.8,-19.8 0,-10.9 8.9,-19.8 19.8,-19.8 10.9,0 19.8,8.9 19.8,19.8 0,10.9 -8.9,19.8 -19.8,19.8 z m 0,-38.7 c -10.4,0 -18.8,8.4 -18.8,18.8 0,10.4 8.4,18.8 18.8,18.8 10.4,0 18.8,-8.4 18.8,-18.8 0,-10.4 -8.4,-18.8 -18.8,-18.8 z"
         id="path10" /></g><g
       id="g12" /></g><text
     xml:space="preserve"
     style="font-style:normal;font-weight:normal;font-size:90px;line-height:125%;font-family:sans-serif;letter-spacing:0px;word-spacing:0px;fill:#000000;fill-opacity:1;stroke:none;stroke-width:1px;stroke-linecap:butt;stroke-linejoin:miter;stroke-opacity:1"
     x="-376.375"
     y="379.625"
     id="text3354"><tspan
       style="font-style:normal;font-variant:normal;font-weight:500;font-stretch:normal;font-size:212.5px;font-family:Neometric;-inkscape-font-specification:'Neometric Medium'"
       id="tspan3356"
       x="-376.375"
       y="379.625">obozrenie</tspan></text>
</svg>